<svg width="1366" height="997" viewBox="0 0 1366 997" fill="none" xmlns="http://www.w3.org/2000/svg">
<rect y="229" width="1366" height="768" fill="#FF3D22"/>
<path d="M2.89368 102.651C-4.43256 85.3415 -36.668 41.3057 -107 3.63618L-86.9749 152.818L-72.8109 302H1399.76L1432 253.593V74.0465C1432 74.0465 1369.37 16.5908 1320.64 21.6788C1275.42 26.4001 1271.66 72.5095 1228.82 86.3683C1138.11 115.711 1091.12 -23.9796 999.751 3.63618C947.283 19.494 945.483 74.2084 891.811 86.3683C827.696 100.895 796.744 40.0784 730.634 39.7215C639.283 39.2283 608.339 131.549 517.196 125.974C437.852 121.121 416.936 37.1839 337.459 39.7215C257.342 42.2795 243.703 130.408 164.071 138.736C99.6458 145.473 2.89368 102.651 2.89368 102.651Z" fill="#FF3D22"/>
</svg>
