<svg width="193" height="43" viewBox="0 0 193 43" fill="none" xmlns="http://www.w3.org/2000/svg">
<path d="M56.8066 23.2693H53.1836V20.9842H56.8066C57.3665 20.9842 57.8223 20.893 58.1738 20.7108C58.5254 20.522 58.7826 20.2615 58.9453 19.9295C59.1081 19.5975 59.1895 19.2231 59.1895 18.8065C59.1895 18.3833 59.1081 17.9894 58.9453 17.6248C58.7826 17.2602 58.5254 16.9673 58.1738 16.7459C57.8223 16.5246 57.3665 16.4139 56.8066 16.4139H54.1992V28.3377H51.2695V14.119H56.8066C57.9199 14.119 58.8737 14.3208 59.668 14.7244C60.4688 15.1216 61.0807 15.6717 61.5039 16.3748C61.9271 17.0779 62.1387 17.882 62.1387 18.7869C62.1387 19.7049 61.9271 20.4992 61.5039 21.1697C61.0807 21.8403 60.4688 22.3579 59.668 22.7225C58.8737 23.0871 57.9199 23.2693 56.8066 23.2693ZM67.2754 14.119V28.3377H64.3555V14.119H67.2754ZM80.3027 26.0526V28.3377H70.2246V26.0526H80.3027ZM80.1562 15.7498L71.5234 28.3377H69.4629V26.658L78.1641 14.119H80.1562V15.7498ZM79.1504 14.119V16.4139H69.4727V14.119H79.1504ZM92.4512 26.0526V28.3377H82.373V26.0526H92.4512ZM92.3047 15.7498L83.6719 28.3377H81.6113V26.658L90.3125 14.119H92.3047V15.7498ZM91.2988 14.119V16.4139H81.6211V14.119H91.2988ZM100.234 16.5506L96.3672 28.3377H93.252L98.5352 14.119H100.518L100.234 16.5506ZM103.447 28.3377L99.5703 16.5506L99.2578 14.119H101.26L106.572 28.3377H103.447ZM103.271 23.0447V25.3397H95.7617V23.0447H103.271ZM114.209 14.119H116.689L120.342 24.5584L123.994 14.119H126.475L121.338 28.3377H119.346L114.209 14.119ZM112.871 14.119H115.342L115.791 24.2947V28.3377H112.871V14.119ZM125.342 14.119H127.822V28.3377H124.893V24.2947L125.342 14.119ZM136.348 16.5506L132.48 28.3377H129.365L134.648 14.119H136.631L136.348 16.5506ZM139.561 28.3377L135.684 16.5506L135.371 14.119H137.373L142.686 28.3377H139.561ZM139.385 23.0447V25.3397H131.875V23.0447H139.385ZM155.576 14.119V28.3377H152.646L146.934 18.8065V28.3377H144.004V14.119H146.934L152.656 23.66V14.119H155.576ZM164.189 14.119V28.3377H161.27V14.119H164.189ZM168.564 14.119V16.4139H156.963V14.119H168.564ZM178.086 14.119H181.006V23.5135C181.006 24.6072 180.771 25.5285 180.303 26.2772C179.84 27.0259 179.199 27.589 178.379 27.9666C177.565 28.3442 176.628 28.533 175.566 28.533C174.505 28.533 173.561 28.3442 172.734 27.9666C171.914 27.589 171.27 27.0259 170.801 26.2772C170.339 25.5285 170.107 24.6072 170.107 23.5135V14.119H173.037V23.5135C173.037 24.1515 173.138 24.6723 173.34 25.076C173.542 25.4796 173.831 25.7759 174.209 25.9647C174.593 26.1535 175.046 26.2479 175.566 26.2479C176.1 26.2479 176.553 26.1535 176.924 25.9647C177.301 25.7759 177.588 25.4796 177.783 25.076C177.985 24.6723 178.086 24.1515 178.086 23.5135V14.119ZM192.559 26.0526V28.3377H185.4V26.0526H192.559ZM186.348 14.119V28.3377H183.418V14.119H186.348Z" fill="#FF3D22"/>
<path d="M39.2811 21.8165C39.1556 26.1041 37.503 30.2058 34.6211 33.3828C31.7392 36.5598 27.8175 38.6032 23.5624 39.1447C19.3074 39.6863 14.9988 38.6905 11.413 36.3367C7.82712 33.9829 5.19975 30.4259 4.00422 26.3065C2.80869 22.1872 3.12359 17.7762 4.8922 13.8685C6.66082 9.9607 9.76685 6.81301 13.6507 4.99251C17.5346 3.172 21.9409 2.79837 26.0759 3.93893C30.2108 5.07949 33.8025 7.65924 36.2038 11.2134L21.2899 21.2899L39.2811 21.8165Z" fill="#FF3D22"/>
</svg>
